<?xml version="1.0" encoding="utf-8"?>
<!-- Generator: Adobe Illustrator 19.2.1, SVG Export Plug-In . SVG Version: 6.00 Build 0)  -->
<svg version="1.1" id="Layer_1" xmlns="http://www.w3.org/2000/svg" xmlns:xlink="http://www.w3.org/1999/xlink" x="0px" y="0px"
	 viewBox="0 0 960 560" style="enable-background:new 0 0 960 560;" xml:space="preserve">
<style type="text/css">
	.st0{fill:#FFBC5E;stroke:#000000;stroke-miterlimit:10;}
	.st1{fill:#FFFFFF;}
	.st2{fill:#FFFFFF;stroke:#000000;stroke-width:0.25;stroke-miterlimit:10;}
	.st3{fill:#130042;stroke:#000000;stroke-miterlimit:10;}
</style>
<rect x="0" class="st0" width="960" height="560"/>
<circle class="st1" cx="486" cy="274" r="231.7"/>
<circle class="st2" cx="485" cy="272" r="203"/>
<circle class="st2" cx="485" cy="273.7" r="156.2"/>
<g>
	<g>
		<path class="st1" d="M168.2,152c1.1-15,2.1-30,3.4-44.9c1.4-15.2,3.1-30.4,4.6-45.6c1.1,0,2.2,0,3.2,0.1c0,10.8,0,21.6,0,32.4
			c0.1,10.9,0,21.8,0.4,32.6c0.4,10.9,0.2,21.9,3.9,32.3c1,0.1,1.9,0.1,2.9,0.2c0.9-3.6,2.3-7.1,2.5-10.7c1.6-23.6,3-47.3,4.5-71
			c0.3-5.3,0.9-10.6,1.6-15.8c4.2,32.3-1.2,65.3,5.7,97.4c1.1,0.1,2.1,0.2,3.2,0.3c1-2.8,2.8-5.5,2.9-8.3
			c1.6-24.9,2.9-49.8,4.3-74.7c0.3-4.5,0.5-9.1,1.3-13.6c4.3,31.8,0.3,64.2,6.4,95.9c1,0.1,2,0.3,3,0.4c0.9-2.9,2.5-5.9,2.7-8.8
			c1.6-24.9,2.9-49.8,4.3-74.7c0.2-3.9,0-7.8,0-11.8c0.7-0.1,1.4-0.1,2.1-0.2c1,7.8,2.6,15.5,2.9,23.3c1.4,32.6,2.6,65.1,3.5,97.7
			c0.3,12.7-5.6,23.6-14,32.6c-8.3,8.9-12,18.8-11.1,30.9c3.4,49.7,6.9,99.5,9.7,149.3c1.3,23.4,1.9,46.8,1.8,70.2
			c0,12.8-4,24.4-17.2,30.1c-2.5,0-4.9,0-7.4,0c-11.8-5.6-14.5-16.3-16.1-27.9c-3.7-26-0.9-51.7,2.2-77.5
			c6-49.5,10.2-99.2,9.5-149.1c-0.1-7-2.4-15.1-6.5-20.6c-9.4-12.5-18.9-24.6-20.2-40.9C168.2,171.8,168.2,161.9,168.2,152z"/>
	</g>
</g>
<rect x="339.1" y="34.1" class="st3" width="286.5" height="486.6"/>
<path class="st1" d="M789.8,67.2l7.8,420c0,0-16.6,23.3-33.6,0c6.5-168.4,6.5-168.4,6.5-168.4l-1.5-11.2c0.1-9.7-38.9-29.4-0.9-229
	C768,78.7,777.5,49.5,789.8,67.2z"/>
</svg>
